<svg width="571" height="303" viewBox="0 0 571 303" fill="none" xmlns="http://www.w3.org/2000/svg">
<path d="M26.4808 273.687H10.3592C10.2354 273.687 10.1711 273.747 10.1711 273.872L8.90772 283.944C8.90772 284.069 8.96844 284.129 9.09226 284.129H20.1555C20.4366 284.129 20.5759 284.285 20.5759 284.598L20.202 287.548C20.1377 287.861 19.9674 288.017 19.6864 288.017H8.57667C8.45166 288.017 8.3909 288.082 8.3909 288.205L7.12396 298.509C7.12396 298.634 7.17039 298.696 7.26684 298.696H23.4337C23.7468 298.696 23.8719 298.854 23.8111 299.165L23.4337 302.116C23.4337 302.241 23.3872 302.348 23.2955 302.442C23.1991 302.537 23.0752 302.586 22.9181 302.586H2.72057C2.43955 302.586 2.29785 302.428 2.29785 302.116L6.23446 270.265C6.29759 269.955 6.46906 269.795 6.75006 269.795H26.9511C27.1047 269.795 27.2226 269.844 27.3012 269.936C27.3798 270.031 27.4024 270.14 27.3715 270.265L26.9976 273.214C26.9333 273.527 26.7618 273.687 26.4808 273.687Z" fill="#ED5021"/>
<path d="M32.4555 301.161C30.9707 299.958 30.0406 298.327 29.6667 296.265C29.5416 295.546 29.4785 294.69 29.4785 293.687C29.4785 292.627 29.5416 291.597 29.6667 290.599C29.9477 288.35 30.4144 286.461 31.0731 284.932C31.8839 282.93 33.1972 281.34 35.0097 280.152C36.8219 278.966 38.8676 278.372 41.149 278.372C43.4282 278.372 45.3417 278.966 46.8896 280.152C48.4354 281.34 49.3508 282.839 49.6319 284.649C49.7568 285.178 49.8178 285.697 49.8178 286.196C49.7855 286.477 49.6319 286.631 49.3508 286.662L45.8812 287.18H45.7882C45.5383 287.18 45.4142 287.037 45.4142 286.756L45.3179 286.008C45.2249 284.947 44.7558 284.055 43.9129 283.335C43.0685 282.62 41.9754 282.26 40.6335 282.26C39.288 282.26 38.1318 282.62 37.1636 283.335C36.1955 284.055 35.4932 285.008 35.056 286.196C34.682 287.101 34.3509 288.584 34.0702 290.644C33.9449 291.674 33.8843 292.642 33.8843 293.548C33.8843 293.986 33.9141 294.486 33.9772 295.046C34.1342 296.296 34.6037 297.28 35.3834 297.999C36.1635 298.714 37.2267 299.073 38.5686 299.073C39.8833 299.073 41.0621 298.708 42.1089 297.974C43.1554 297.24 43.8663 296.311 44.2427 295.187L44.3354 294.955C44.3354 294.861 44.3497 294.796 44.3821 294.767C44.4141 294.642 44.4747 294.556 44.5701 294.511C44.6631 294.462 44.7738 294.456 44.8975 294.486L48.2257 295.046C48.4756 295.111 48.5829 295.235 48.5531 295.421C48.5531 295.515 48.5366 295.579 48.5067 295.607C48.4756 295.765 48.365 296.11 48.1793 296.64C47.3968 298.544 46.0919 300.073 44.2665 301.227C42.4363 302.385 40.3811 302.965 38.1019 302.965C35.8218 302.965 33.9367 302.361 32.4555 301.161Z" fill="#ED5021"/>
<path d="M52.866 302.116L56.7563 270.265C56.8194 269.955 56.9907 269.795 57.2718 269.795H60.7392C61.0523 269.795 61.1773 269.955 61.1154 270.265L57.2254 302.116C57.1623 302.428 56.9907 302.586 56.7096 302.586H53.2422C52.9291 302.586 52.8054 302.428 52.866 302.116Z" fill="#ED5021"/>
<path d="M71.7295 283.259C70.8065 283.929 70.1148 284.829 69.6445 285.952C69.3634 286.638 69.1287 287.512 68.9394 288.575C68.911 288.7 68.9574 288.762 69.0823 288.762H79.4872C79.6109 288.762 79.6753 288.7 79.6753 288.575C79.7359 287.823 79.7682 287.327 79.7682 287.077C79.7682 285.639 79.3537 284.475 78.5239 283.585C77.6975 282.696 76.5495 282.251 75.0802 282.251C73.7704 282.251 72.651 282.586 71.7295 283.259ZM83.6582 291.994C83.6262 292.307 83.4524 292.463 83.1427 292.463H68.6132C68.4882 292.463 68.4276 292.524 68.4276 292.649C68.3632 293.398 68.3309 293.898 68.3309 294.148C68.3309 294.461 68.3632 294.772 68.4276 295.086C68.5809 296.336 69.1192 297.31 70.042 298.013C70.9638 298.714 72.2069 299.064 73.7704 299.064C75.9874 299.064 77.8307 298.115 79.2979 296.211C79.4872 295.896 79.6896 295.851 79.9075 296.07L82.2983 297.846C82.4867 298.035 82.502 298.24 82.345 298.459C81.3125 299.894 79.9706 301.011 78.3154 301.806C76.6568 302.602 74.8455 303.001 72.8772 303.001C70.6589 303.001 68.862 302.511 67.4881 301.527C66.1139 300.542 65.1457 299.113 64.5824 297.24C64.2694 296.18 64.1133 294.928 64.1133 293.492C64.1133 292.899 64.1764 291.914 64.3014 290.541C64.4574 289.356 64.6205 288.356 64.7946 287.543C64.9659 286.733 65.1921 285.999 65.4731 285.343C66.284 283.187 67.5832 281.486 69.3634 280.238C71.1436 278.988 73.207 278.363 75.5494 278.363C78.5501 278.363 80.7123 279.129 82.0414 280.658C83.3677 282.191 84.0322 284.421 84.0322 287.357C84.0322 288.45 83.9072 289.995 83.6582 291.994Z" fill="#ED5021"/>
<path d="M91.4128 301.161C89.9279 299.958 88.9979 298.327 88.6227 296.265C88.4989 295.546 88.4346 294.69 88.4346 293.687C88.4346 292.627 88.4989 291.597 88.6227 290.599C88.9049 288.35 89.3719 286.461 90.0291 284.932C90.8412 282.93 92.1544 281.34 93.967 280.152C95.778 278.966 97.8249 278.372 100.106 278.372C102.386 278.372 104.298 278.966 105.846 280.152C107.391 281.34 108.308 282.839 108.589 284.649C108.713 285.178 108.775 285.697 108.775 286.196C108.743 286.477 108.589 286.631 108.308 286.662L104.837 287.18H104.744C104.496 287.18 104.371 287.037 104.371 286.756L104.275 286.008C104.182 284.947 103.713 284.055 102.869 283.335C102.026 282.62 100.933 282.26 99.5908 282.26C98.2453 282.26 97.0891 282.62 96.1197 283.335C95.1515 284.055 94.4504 285.008 94.0121 286.196C93.6384 287.101 93.3085 288.584 93.0275 290.644C92.9025 291.674 92.8415 292.642 92.8415 293.548C92.8415 293.986 92.8702 294.486 92.9345 295.046C93.0906 296.296 93.5609 297.28 94.3407 297.999C95.1208 298.714 96.184 299.073 97.5262 299.073C98.8394 299.073 100.019 298.708 101.066 297.974C102.113 297.24 102.823 296.311 103.2 295.187L103.293 294.955C103.293 294.861 103.307 294.796 103.339 294.767C103.37 294.642 103.431 294.556 103.527 294.511C103.62 294.462 103.73 294.456 103.855 294.486L107.183 295.046C107.432 295.111 107.539 295.235 107.51 295.421C107.51 295.515 107.493 295.579 107.464 295.607C107.432 295.765 107.322 296.11 107.137 296.64C106.354 298.544 105.049 300.073 103.223 301.227C101.394 302.385 99.3384 302.965 97.0592 302.965C94.7778 302.965 92.894 302.361 91.4128 301.161Z" fill="#ED5021"/>
<path d="M125.182 282.442H120.26C120.135 282.442 120.074 282.507 120.074 282.632L118.526 295.043C118.494 295.262 118.479 295.558 118.479 295.933C118.479 296.935 118.738 297.65 119.253 298.089C119.769 298.525 120.558 298.745 121.619 298.745H122.933C123.089 298.745 123.206 298.79 123.283 298.884C123.362 298.976 123.385 299.089 123.353 299.214L122.979 302.116C122.979 302.428 122.822 302.586 122.509 302.586C121.509 302.647 120.807 302.677 120.401 302.677C118.308 302.677 116.729 302.342 115.667 301.672C114.603 300.999 114.074 299.774 114.074 297.995C114.074 297.712 114.104 297.261 114.169 296.636L115.903 282.632C115.903 282.507 115.838 282.442 115.715 282.442H112.948C112.635 282.442 112.51 282.286 112.575 281.976L112.902 279.213C112.965 278.9 113.137 278.744 113.418 278.744H116.184C116.309 278.744 116.369 278.683 116.369 278.554L117.073 273.029C117.135 272.717 117.308 272.563 117.59 272.563H120.868C120.993 272.563 121.094 272.608 121.175 272.703C121.252 272.793 121.274 272.904 121.245 273.029L120.587 278.554C120.558 278.589 120.558 278.628 120.587 278.673C120.619 278.72 120.666 278.744 120.729 278.744H125.649C125.962 278.744 126.086 278.9 126.025 279.213L125.698 281.976C125.635 282.286 125.463 282.442 125.182 282.442Z" fill="#ED5021"/>
<path d="M132.676 274.294C132.207 273.828 131.971 273.216 131.971 272.47C131.971 271.47 132.292 270.642 132.934 269.986C133.572 269.332 134.363 269.002 135.299 269.002C136.079 269.002 136.706 269.228 137.175 269.682C137.641 270.137 137.877 270.752 137.877 271.531C137.877 272.5 137.548 273.32 136.894 273.99C136.236 274.663 135.456 274.998 134.549 274.998C133.769 274.998 133.143 274.763 132.676 274.294ZM128.974 302.07L131.785 279.214C131.785 279.089 131.832 278.98 131.925 278.886C132.018 278.792 132.128 278.745 132.252 278.745H135.722C136.004 278.745 136.142 278.901 136.142 279.214L133.331 302.07C133.267 302.383 133.096 302.539 132.815 302.539H129.348C129.035 302.539 128.91 302.383 128.974 302.07Z" fill="#ED5021"/>
<path d="M143.666 301.161C142.183 299.958 141.252 298.327 140.878 296.265C140.754 295.546 140.689 294.69 140.689 293.687C140.689 292.627 140.754 291.597 140.878 290.599C141.159 288.35 141.625 286.461 142.284 284.932C143.096 282.93 144.409 281.34 146.221 280.152C148.033 278.966 150.08 278.372 152.361 278.372C154.639 278.372 156.553 278.966 158.101 280.152C159.646 281.34 160.562 282.839 160.843 284.649C160.968 285.178 161.029 285.697 161.029 286.196C160.996 286.477 160.843 286.631 160.562 286.662L157.092 287.18H156.999C156.75 287.18 156.625 287.037 156.625 286.756L156.53 286.008C156.437 284.947 155.967 284.055 155.124 283.335C154.279 282.62 153.188 282.26 151.846 282.26C150.5 282.26 149.343 282.62 148.375 283.335C147.406 284.055 146.705 285.008 146.267 286.196C145.893 287.101 145.563 288.584 145.282 290.644C145.157 291.674 145.096 292.642 145.096 293.548C145.096 293.986 145.125 294.486 145.189 295.046C145.345 296.296 145.815 297.28 146.594 297.999C147.374 298.714 148.439 299.073 149.781 299.073C151.094 299.073 152.274 298.708 153.321 297.974C154.366 297.24 155.077 296.311 155.455 295.187L155.546 294.955C155.546 294.861 155.562 294.796 155.593 294.767C155.625 294.642 155.686 294.556 155.782 294.511C155.875 294.462 155.985 294.456 156.11 294.486L159.438 295.046C159.687 295.111 159.794 295.235 159.765 295.421C159.765 295.515 159.748 295.579 159.719 295.607C159.687 295.765 159.576 296.11 159.392 296.64C158.608 298.544 157.304 300.073 155.477 301.227C153.648 302.385 151.593 302.965 149.314 302.965C147.033 302.965 145.148 302.361 143.666 301.161Z" fill="#ED5021"/>
<path d="M197.866 273.687H181.745C181.62 273.687 181.557 273.747 181.557 273.872L180.292 283.944C180.292 284.069 180.353 284.129 180.478 284.129H191.541C191.822 284.129 191.962 284.285 191.962 284.598L191.588 287.548C191.524 287.861 191.352 288.017 191.071 288.017H179.962C179.837 288.017 179.777 288.082 179.777 288.205L178.51 298.509C178.51 298.634 178.556 298.696 178.651 298.696H194.819C195.133 298.696 195.258 298.854 195.197 299.165L194.819 302.116C194.819 302.241 194.773 302.348 194.68 302.442C194.585 302.537 194.46 302.586 194.304 302.586H174.106C173.825 302.586 173.683 302.428 173.683 302.116L177.62 270.265C177.684 269.955 177.855 269.795 178.136 269.795H198.336C198.489 269.795 198.608 269.844 198.687 269.936C198.766 270.031 198.788 270.14 198.756 270.265L198.382 273.214C198.319 273.527 198.147 273.687 197.866 273.687Z" fill="#ED5021"/>
<path d="M200.349 302.116L204.24 270.265C204.304 269.955 204.474 269.795 204.755 269.795H208.223C208.536 269.795 208.661 269.955 208.6 270.265L204.71 302.116C204.646 302.428 204.474 302.586 204.193 302.586H200.726C200.413 302.586 200.289 302.428 200.349 302.116Z" fill="#ED5021"/>
<path d="M219.216 283.259C218.294 283.929 217.601 284.829 217.132 285.952C216.85 286.638 216.615 287.512 216.427 288.575C216.398 288.7 216.444 288.762 216.569 288.762H226.974C227.099 288.762 227.162 288.7 227.162 288.575C227.223 287.823 227.255 287.327 227.255 287.077C227.255 285.639 226.84 284.475 226.012 283.585C225.185 282.696 224.037 282.251 222.567 282.251C221.257 282.251 220.138 282.586 219.216 283.259ZM231.145 291.994C231.113 292.307 230.94 292.463 230.629 292.463H216.1C215.975 292.463 215.914 292.524 215.914 292.649C215.85 293.398 215.817 293.898 215.817 294.148C215.817 294.461 215.85 294.772 215.914 295.086C216.068 296.336 216.607 297.31 217.529 298.013C218.45 298.714 219.695 299.064 221.257 299.064C223.474 299.064 225.318 298.115 226.786 296.211C226.974 295.896 227.176 295.851 227.394 296.07L229.786 297.846C229.974 298.035 229.989 298.24 229.831 298.459C228.8 299.894 227.458 301.011 225.802 301.806C224.145 302.602 222.332 303.001 220.364 303.001C218.145 303.001 216.349 302.511 214.975 301.527C213.6 300.542 212.632 299.113 212.07 297.24C211.757 296.18 211.6 294.928 211.6 293.492C211.6 292.899 211.664 291.914 211.788 290.541C211.945 289.356 212.107 288.356 212.281 287.543C212.452 286.733 212.679 285.999 212.96 285.343C213.772 283.187 215.07 281.486 216.85 280.238C218.63 278.988 220.695 278.363 223.037 278.363C226.038 278.363 228.2 279.129 229.528 280.658C230.856 282.191 231.519 284.421 231.519 287.357C231.519 288.45 231.395 289.995 231.145 291.994Z" fill="#ED5021"/>
<path d="M238.898 301.161C237.414 299.958 236.483 298.327 236.109 296.265C235.984 295.546 235.921 294.69 235.921 293.687C235.921 292.627 235.984 291.597 236.109 290.599C236.39 288.35 236.857 286.461 237.515 284.932C238.328 282.93 239.641 281.34 241.452 280.152C243.264 278.966 245.311 278.372 247.593 278.372C249.871 278.372 251.784 278.966 253.332 280.152C254.878 281.34 255.794 282.839 256.075 284.649C256.2 285.178 256.26 285.697 256.26 286.196C256.228 286.477 256.075 286.631 255.794 286.662L252.324 287.18H252.231C251.982 287.18 251.857 287.037 251.857 286.756L251.761 286.008C251.669 284.947 251.198 284.055 250.355 283.335C249.511 282.62 248.419 282.26 247.076 282.26C245.732 282.26 244.574 282.62 243.606 283.335C242.638 284.055 241.937 285.008 241.498 286.196C241.125 287.101 240.795 288.584 240.513 290.644C240.389 291.674 240.328 292.642 240.328 293.548C240.328 293.986 240.357 294.486 240.42 295.046C240.577 296.296 241.046 297.28 241.826 297.999C242.606 298.714 243.67 299.073 245.013 299.073C246.326 299.073 247.506 298.708 248.553 297.974C249.598 297.24 250.309 296.311 250.686 295.187L250.778 294.955C250.778 294.861 250.792 294.796 250.824 294.767C250.856 294.642 250.917 294.556 251.013 294.511C251.107 294.462 251.216 294.456 251.341 294.486L254.669 295.046C254.918 295.111 255.025 295.235 254.997 295.421C254.997 295.515 254.979 295.579 254.95 295.607C254.918 295.765 254.807 296.11 254.623 296.64C253.84 298.544 252.535 300.073 250.709 301.227C248.88 302.385 246.825 302.965 244.545 302.965C242.264 302.965 240.379 302.361 238.898 301.161Z" fill="#ED5021"/>
<path d="M272.666 282.442H267.744C267.62 282.442 267.558 282.507 267.558 282.632L266.01 295.043C265.978 295.262 265.963 295.558 265.963 295.933C265.963 296.935 266.222 297.65 266.737 298.089C267.254 298.525 268.043 298.745 269.103 298.745H270.417C270.573 298.745 270.689 298.79 270.767 298.884C270.845 298.976 270.869 299.089 270.837 299.214L270.463 302.116C270.463 302.428 270.306 302.586 269.994 302.586C268.994 302.647 268.291 302.677 267.886 302.677C265.793 302.677 264.213 302.342 263.152 301.672C262.087 300.999 261.558 299.774 261.558 297.995C261.558 297.712 261.59 297.261 261.653 296.636L263.387 282.632C263.387 282.507 263.322 282.442 263.198 282.442H260.432C260.119 282.442 259.994 282.286 260.058 281.976L260.386 279.213C260.45 278.9 260.621 278.744 260.903 278.744H263.668C263.793 278.744 263.853 278.683 263.853 278.554L264.558 273.029C264.619 272.717 264.793 272.563 265.074 272.563H268.352C268.477 272.563 268.578 272.608 268.66 272.703C268.735 272.793 268.758 272.904 268.73 273.029L268.071 278.554C268.043 278.589 268.043 278.628 268.071 278.673C268.103 278.72 268.15 278.744 268.214 278.744H273.133C273.446 278.744 273.571 278.9 273.51 279.213L273.183 281.976C273.119 282.286 272.947 282.442 272.666 282.442Z" fill="#ED5021"/>
<path d="M291.696 279.118C291.913 279.212 291.961 279.399 291.836 279.679L290.664 283.192C290.571 283.475 290.383 283.567 290.102 283.475C289.603 283.255 289.009 283.145 288.322 283.145L287.663 283.192C286.259 283.255 285.032 283.764 283.985 284.715C282.939 285.668 282.321 286.908 282.136 288.441L280.449 302.116C280.384 302.428 280.213 302.586 279.932 302.586H276.466C276.152 302.586 276.027 302.428 276.088 302.116L278.901 279.212C278.964 278.899 279.135 278.743 279.416 278.743H282.837C282.993 278.743 283.11 278.79 283.191 278.884C283.266 278.978 283.29 279.087 283.26 279.212L282.932 281.696C282.932 281.787 282.956 281.842 283.003 281.856C283.048 281.875 283.086 281.851 283.118 281.787C284.745 279.603 286.742 278.509 289.12 278.509C290.088 278.509 290.945 278.714 291.696 279.118Z" fill="#ED5021"/>
<path d="M305.752 298.023C306.752 297.319 307.517 296.329 308.047 295.046C308.544 293.706 308.892 292.238 309.078 290.644C309.203 289.27 309.267 288.305 309.267 287.741C309.267 287.336 309.236 286.852 309.172 286.287C308.922 285.008 308.383 284.014 307.554 283.315C306.728 282.61 305.673 282.26 304.392 282.26C303.142 282.26 302.018 282.61 301.017 283.315C300.017 284.014 299.237 285.008 298.675 286.287C298.237 287.351 297.892 288.804 297.643 290.644C297.55 291.488 297.504 292.298 297.504 293.078C297.504 293.831 297.55 294.486 297.643 295.046C297.831 296.296 298.347 297.28 299.191 297.999C300.034 298.714 301.095 299.073 302.376 299.073C303.626 299.073 304.75 298.724 305.752 298.023ZM296.261 301.206C294.743 300.036 293.784 298.403 293.379 296.311C293.19 295.406 293.097 294.361 293.097 293.173C293.097 292.298 293.143 291.439 293.24 290.599C293.549 288.32 294.05 286.443 294.738 284.977C295.642 282.915 297.002 281.3 298.813 280.128C300.626 278.958 302.689 278.372 304.999 278.372C307.188 278.372 309.017 278.958 310.486 280.128C311.952 281.3 312.906 282.899 313.342 284.932C313.531 285.803 313.626 286.803 313.626 287.926C313.626 288.771 313.577 289.645 313.486 290.55C313.233 292.738 312.736 294.656 311.983 296.311C311.047 298.403 309.687 300.036 307.907 301.206C306.124 302.379 304.128 302.965 301.907 302.965C299.658 302.965 297.776 302.379 296.261 301.206Z" fill="#ED5021"/>
<path d="M336.285 280.264C337.547 281.497 338.184 283.179 338.184 285.299C338.184 285.58 338.151 286.034 338.087 286.658L336.215 302.116C336.185 302.241 336.121 302.348 336.026 302.442C335.935 302.537 335.825 302.586 335.7 302.586H332.231C331.951 302.586 331.807 302.428 331.807 302.116L333.639 287.548C333.667 287.362 333.685 287.082 333.685 286.704C333.685 285.394 333.307 284.334 332.56 283.52C331.807 282.71 330.777 282.302 329.466 282.302C327.997 282.302 326.756 282.786 325.741 283.755C324.723 284.723 324.123 285.973 323.934 287.502L322.156 302.116C322.092 302.428 321.922 302.586 321.638 302.586H318.172C317.858 302.586 317.733 302.428 317.794 302.116L320.608 279.212C320.672 278.899 320.843 278.743 321.123 278.743H324.543C324.702 278.743 324.818 278.79 324.897 278.884C324.973 278.978 324.997 279.087 324.967 279.212L324.732 280.897C324.732 280.962 324.757 281.007 324.802 281.038C324.848 281.071 324.888 281.053 324.921 280.991C326.421 279.274 328.448 278.415 331.012 278.415C333.261 278.415 335.017 279.032 336.285 280.264Z" fill="#ED5021"/>
<path d="M346.527 274.294C346.057 273.828 345.822 273.216 345.822 272.47C345.822 271.47 346.143 270.642 346.783 269.986C347.423 269.332 348.212 269.002 349.148 269.002C349.929 269.002 350.556 269.228 351.026 269.682C351.492 270.137 351.727 270.752 351.727 271.531C351.727 272.5 351.398 273.32 350.745 273.99C350.087 274.663 349.307 274.998 348.398 274.998C347.618 274.998 346.993 274.763 346.527 274.294ZM342.823 302.07L345.636 279.214C345.636 279.089 345.682 278.98 345.774 278.886C345.868 278.792 345.978 278.745 346.103 278.745H349.572C349.855 278.745 349.993 278.901 349.993 279.214L347.182 302.07C347.118 302.383 346.947 302.539 346.664 302.539H343.198C342.884 302.539 342.759 302.383 342.823 302.07Z" fill="#ED5021"/>
<path d="M357.514 301.161C356.03 299.958 355.1 298.327 354.725 296.265C354.6 295.546 354.536 294.69 354.536 293.687C354.536 292.627 354.6 291.597 354.725 290.599C355.006 288.35 355.475 286.461 356.13 284.932C356.944 282.93 358.258 281.34 360.069 280.152C361.88 278.966 363.928 278.372 366.208 278.372C368.488 278.372 370.4 278.966 371.948 280.152C373.494 281.34 374.411 282.839 374.692 284.649C374.817 285.178 374.878 285.697 374.878 286.196C374.844 286.477 374.692 286.631 374.411 286.662L370.939 287.18H370.848C370.598 287.18 370.473 287.037 370.473 286.756L370.378 286.008C370.284 284.947 369.814 284.055 368.973 283.335C368.129 282.62 367.034 282.26 365.693 282.26C364.349 282.26 363.19 282.62 362.224 283.335C361.255 284.055 360.553 285.008 360.115 286.196C359.74 287.101 359.41 288.584 359.13 290.644C359.005 291.674 358.944 292.642 358.944 293.548C358.944 293.986 358.971 294.486 359.035 295.046C359.194 296.296 359.663 297.28 360.444 297.999C361.221 298.714 362.285 299.073 363.629 299.073C364.943 299.073 366.123 298.708 367.168 297.974C368.214 297.24 368.924 296.311 369.302 295.187L369.394 294.955C369.394 294.861 369.409 294.796 369.442 294.767C369.473 294.642 369.534 294.556 369.628 294.511C369.723 294.462 369.833 294.456 369.958 294.486L373.286 295.046C373.533 295.111 373.643 295.235 373.613 295.421C373.613 295.515 373.594 295.579 373.567 295.607C373.533 295.765 373.424 296.11 373.238 296.64C372.457 298.544 371.152 300.073 369.327 301.227C367.495 302.385 365.44 302.965 363.163 302.965C360.88 302.965 358.996 302.361 357.514 301.161Z" fill="#ED5021"/>
<path d="M412.65 269.795H416.119C416.43 269.795 416.555 269.955 416.494 270.265L412.601 302.116C412.537 302.428 412.366 302.586 412.086 302.586H408.62C408.306 302.586 408.181 302.428 408.245 302.116L411.196 278.134C411.196 278.04 411.165 277.979 411.104 277.948C411.04 277.917 410.995 277.948 410.961 278.04L403.231 288.252C403.042 288.441 402.837 288.531 402.621 288.531H400.887C400.698 288.531 400.527 288.441 400.371 288.252L395.076 278.134C395.043 278.04 395.006 278.009 394.958 278.04C394.909 278.07 394.872 278.134 394.839 278.228L391.888 302.116C391.888 302.241 391.839 302.348 391.748 302.442C391.653 302.537 391.543 302.586 391.418 302.586H387.953C387.672 302.586 387.529 302.428 387.529 302.116L391.464 270.265C391.528 269.955 391.702 269.795 391.982 269.795H395.448C395.698 269.795 395.854 269.891 395.918 270.08L402.386 282.35C402.414 282.381 402.466 282.397 402.527 282.397C402.591 282.397 402.636 282.381 402.667 282.35L412.086 270.08C412.242 269.891 412.431 269.795 412.65 269.795Z" fill="#ED5021"/>
<path d="M434.867 293.572C434.992 292.993 435.133 292.049 435.288 290.738C435.477 289.426 435.569 288.32 435.569 287.412C435.569 287.101 435.538 286.662 435.477 286.102C435.322 284.977 434.873 284.055 434.139 283.335C433.407 282.62 432.429 282.26 431.212 282.26C429.932 282.26 428.798 282.62 427.814 283.335C426.829 284.055 426.149 284.993 425.774 286.147C425.558 286.617 425.384 287.131 425.262 287.692C425.134 288.256 424.979 289.24 424.79 290.644C424.604 292.267 424.509 293.347 424.509 293.876C424.509 294.312 424.555 294.751 424.649 295.187C424.744 296.345 425.198 297.28 426.009 297.999C426.82 298.714 427.865 299.073 429.149 299.073C430.399 299.073 431.472 298.708 432.362 297.974C433.252 297.24 433.913 296.311 434.352 295.187C434.569 294.69 434.742 294.15 434.867 293.572ZM437.212 278.747H440.678C440.991 278.747 441.116 278.903 441.055 279.216L438.242 302.12C438.242 302.245 438.196 302.352 438.102 302.446C438.007 302.541 437.882 302.59 437.727 302.59H434.307C434.023 302.59 433.883 302.432 433.883 302.12L434.209 299.497C434.243 299.403 434.227 299.348 434.163 299.333C434.099 299.317 434.054 299.358 434.023 299.452C432.398 301.791 430.213 302.965 427.46 302.965C425.463 302.965 423.79 302.352 422.449 301.137C421.104 299.918 420.29 298.297 420.01 296.265C419.946 295.579 419.918 295.064 419.918 294.72C419.918 293.845 420.025 292.503 420.245 290.689C420.403 289.349 420.583 288.209 420.784 287.272C420.988 286.336 421.26 285.462 421.604 284.649C422.321 282.805 423.494 281.3 425.119 280.128C426.741 278.958 428.603 278.372 430.697 278.372C433.444 278.372 435.273 279.482 436.178 281.7C436.212 281.791 436.251 281.831 436.297 281.815C436.343 281.8 436.382 281.745 436.413 281.651L436.693 279.216C436.757 278.903 436.928 278.747 437.212 278.747Z" fill="#ED5021"/>
<path d="M457.97 282.442H453.047C452.922 282.442 452.861 282.507 452.861 282.632L451.312 295.043C451.282 295.262 451.267 295.558 451.267 295.933C451.267 296.935 451.526 297.65 452.041 298.089C452.556 298.525 453.346 298.745 454.406 298.745H455.72C455.876 298.745 455.991 298.79 456.071 298.884C456.15 298.976 456.171 299.089 456.141 299.214L455.766 302.116C455.766 302.428 455.61 302.586 455.296 302.586C454.297 302.647 453.595 302.677 453.19 302.677C451.096 302.677 449.517 302.342 448.456 301.672C447.392 300.999 446.862 299.774 446.862 297.995C446.862 297.712 446.892 297.261 446.956 296.636L448.691 282.632C448.691 282.507 448.627 282.442 448.502 282.442H445.737C445.423 282.442 445.298 282.286 445.362 281.976L445.688 279.213C445.752 278.9 445.923 278.744 446.206 278.744H448.971C449.096 278.744 449.157 278.683 449.157 278.554L449.861 273.029C449.922 272.717 450.096 272.563 450.376 272.563H453.656C453.781 272.563 453.882 272.608 453.964 272.703C454.037 272.793 454.062 272.904 454.031 273.029L453.373 278.554C453.346 278.589 453.346 278.628 453.373 278.673C453.406 278.72 453.452 278.744 453.516 278.744H458.436C458.75 278.744 458.875 278.9 458.814 279.213L458.485 281.976C458.421 282.286 458.25 282.442 457.97 282.442Z" fill="#ED5021"/>
<path d="M469.003 283.259C468.083 283.929 467.391 284.829 466.921 285.952C466.638 286.638 466.403 287.512 466.217 288.575C466.187 288.7 466.232 288.762 466.357 288.762H476.761C476.886 288.762 476.95 288.7 476.95 288.575C477.011 287.823 477.045 287.327 477.045 287.077C477.045 285.639 476.63 284.475 475.801 283.585C474.975 282.696 473.826 282.251 472.357 282.251C471.046 282.251 469.927 282.586 469.003 283.259ZM480.934 291.994C480.901 292.307 480.727 292.463 480.419 292.463H465.888C465.763 292.463 465.702 292.524 465.702 292.649C465.638 293.398 465.608 293.898 465.608 294.148C465.608 294.461 465.638 294.772 465.702 295.086C465.858 296.336 466.394 297.31 467.318 298.013C468.238 298.714 469.482 299.064 471.046 299.064C473.262 299.064 475.106 298.115 476.572 296.211C476.761 295.896 476.966 295.851 477.182 296.07L479.575 297.846C479.764 298.035 479.776 298.24 479.621 298.459C478.587 299.894 477.246 301.011 475.591 301.806C473.933 302.602 472.122 303.001 470.153 303.001C467.933 303.001 466.138 302.511 464.763 301.527C463.388 300.542 462.422 299.113 461.858 297.24C461.544 296.18 461.389 294.928 461.389 293.492C461.389 292.899 461.453 291.914 461.578 290.541C461.733 289.356 461.895 288.356 462.071 287.543C462.242 286.733 462.468 285.999 462.748 285.343C463.559 283.187 464.858 281.486 466.638 280.238C468.418 278.988 470.482 278.363 472.826 278.363C475.826 278.363 477.99 279.129 479.316 280.658C480.645 282.191 481.309 284.421 481.309 287.357C481.309 288.45 481.184 289.995 480.934 291.994Z" fill="#ED5021"/>
<path d="M500.806 279.118C501.022 279.212 501.071 279.399 500.946 279.679L499.775 283.192C499.681 283.475 499.492 283.567 499.211 283.475C498.711 283.255 498.12 283.145 497.431 283.145L496.773 283.192C495.367 283.255 494.142 283.764 493.093 284.715C492.048 285.668 491.432 286.908 491.246 288.441L489.557 302.116C489.493 302.428 489.323 302.586 489.042 302.586H485.573C485.262 302.586 485.137 302.428 485.198 302.116L488.009 279.212C488.073 278.899 488.243 278.743 488.527 278.743H491.947C492.103 278.743 492.218 278.79 492.301 278.884C492.377 278.978 492.398 279.087 492.371 279.212L492.042 281.696C492.042 281.787 492.066 281.842 492.112 281.856C492.157 281.875 492.197 281.851 492.228 281.787C493.855 279.603 495.852 278.509 498.23 278.509C499.196 278.509 500.056 278.714 500.806 279.118Z" fill="#ED5021"/>
<path d="M506.149 274.294C505.68 273.828 505.445 273.216 505.445 272.47C505.445 271.47 505.765 270.642 506.405 269.986C507.045 269.332 507.835 269.002 508.774 269.002C509.551 269.002 510.179 269.228 510.648 269.682C511.115 270.137 511.35 270.752 511.35 271.531C511.35 272.5 511.023 273.32 510.368 273.99C509.71 274.663 508.929 274.998 508.021 274.998C507.24 274.998 506.616 274.763 506.149 274.294ZM502.445 302.07L505.259 279.214C505.259 279.089 505.305 278.98 505.399 278.886C505.491 278.792 505.6 278.745 505.725 278.745H509.194C509.478 278.745 509.615 278.901 509.615 279.214L506.805 302.07C506.741 302.383 506.57 302.539 506.286 302.539H502.82C502.506 302.539 502.381 302.383 502.445 302.07Z" fill="#ED5021"/>
<path d="M528.971 293.572C529.096 292.993 529.237 292.049 529.392 290.738C529.581 289.426 529.673 288.32 529.673 287.412C529.673 287.101 529.642 286.662 529.581 286.102C529.426 284.977 528.978 284.055 528.246 283.335C527.511 282.62 526.533 282.26 525.316 282.26C524.036 282.26 522.902 282.62 521.918 283.335C520.933 284.055 520.253 284.993 519.878 286.147C519.662 286.617 519.488 287.131 519.366 287.692C519.238 288.256 519.083 289.24 518.894 290.644C518.708 292.267 518.613 293.347 518.613 293.876C518.613 294.312 518.659 294.751 518.753 295.187C518.848 296.345 519.302 297.28 520.113 297.999C520.924 298.714 521.969 299.073 523.253 299.073C524.503 299.073 525.576 298.708 526.466 297.974C527.356 297.24 528.017 296.311 528.456 295.187C528.673 294.69 528.846 294.15 528.971 293.572ZM531.316 278.747H534.782C535.095 278.747 535.22 278.903 535.159 279.216L532.346 302.12C532.346 302.245 532.3 302.352 532.206 302.446C532.111 302.541 531.986 302.59 531.831 302.59H528.411C528.127 302.59 527.987 302.432 527.987 302.12L528.313 299.497C528.347 299.403 528.331 299.348 528.267 299.333C528.203 299.317 528.158 299.358 528.127 299.452C526.502 301.791 524.317 302.965 521.564 302.965C519.567 302.965 517.894 302.352 516.553 301.137C515.208 299.918 514.394 298.297 514.114 296.265C514.05 295.579 514.022 295.064 514.022 294.72C514.022 293.845 514.129 292.503 514.349 290.689C514.507 289.349 514.687 288.209 514.888 287.272C515.092 286.336 515.364 285.462 515.708 284.649C516.425 282.805 517.598 281.3 519.223 280.128C520.848 278.958 522.707 278.372 524.801 278.372C527.548 278.372 529.377 279.482 530.282 281.7C530.316 281.791 530.355 281.831 530.401 281.815C530.447 281.8 530.486 281.745 530.517 281.651L530.797 279.216C530.861 278.903 531.032 278.747 531.316 278.747Z" fill="#ED5021"/>
<path d="M538.72 302.116L542.609 270.265C542.673 269.955 542.844 269.795 543.125 269.795H546.594C546.905 269.795 547.029 269.955 546.969 270.265L543.079 302.116C543.015 302.428 542.844 302.586 542.564 302.586H539.095C538.781 302.586 538.659 302.428 538.72 302.116Z" fill="#ED5021"/>
<path d="M551.303 301.221C549.788 300.131 549.029 298.742 549.029 297.053C549.029 296.774 549.044 296.573 549.078 296.444L549.169 295.93C549.169 295.807 549.218 295.696 549.312 295.6C549.404 295.509 549.529 295.46 549.684 295.46H552.922C553.077 295.46 553.193 295.509 553.272 295.6C553.348 295.696 553.373 295.807 553.339 295.93L553.293 296.164C553.202 297.038 553.577 297.803 554.418 298.461C555.263 299.116 556.387 299.445 557.793 299.445C559.262 299.445 560.466 299.107 561.402 298.437C562.338 297.764 562.81 296.932 562.81 295.93C562.81 295.12 562.441 294.504 561.707 294.081C560.975 293.659 559.808 293.212 558.216 292.745C556.622 292.277 555.308 291.808 554.281 291.341C553.248 290.872 552.373 290.218 551.653 289.374C550.934 288.529 550.574 287.47 550.574 286.189C550.574 283.847 551.474 281.979 553.272 280.59C555.068 279.202 557.372 278.507 560.186 278.507C562.652 278.507 564.621 279.061 566.09 280.17C567.557 281.279 568.291 282.723 568.291 284.502C568.291 284.846 568.276 285.096 568.245 285.252L568.197 285.392C568.197 285.517 568.151 285.627 568.059 285.721C567.962 285.812 567.852 285.861 567.727 285.861H564.542C564.386 285.861 564.27 285.812 564.191 285.721C564.112 285.627 564.091 285.517 564.121 285.392L564.17 285.252C564.261 284.347 563.911 283.588 563.112 282.979C562.316 282.369 561.182 282.065 559.716 282.065C558.277 282.065 557.107 282.354 556.198 282.934C555.293 283.512 554.842 284.301 554.842 285.297C554.842 286.111 555.217 286.736 555.967 287.174C556.714 287.609 557.902 288.079 559.527 288.578C561.152 289.044 562.481 289.499 563.511 289.935C564.542 290.373 565.423 291.013 566.16 291.857C566.892 292.7 567.261 293.776 567.261 295.089C567.261 296.649 566.846 298.016 566.017 299.186C565.191 300.356 564.027 301.264 562.527 301.901C561.03 302.543 559.323 302.863 557.421 302.863C554.857 302.863 552.818 302.315 551.303 301.221Z" fill="#ED5021"/>
<path d="M48.6735 84.9897H4.43115V207.296H141.173V167.102H48.6735V124.322H141.173V84.9897H79.3649H48.6735Z" fill="#1B1918"/>
<path d="M4.43115 7.18026L44.6522 47.3789H141.173V7.18026H4.43115Z" fill="#1B1918"/>
<path d="M223.351 84.9897H179.108V207.296H315.853V167.102H223.351V124.322H315.853V84.9897H254.042H223.351Z" fill="#ED5021"/>
<path d="M179.108 7.18026L219.33 47.3789H315.853V7.18026H179.108Z" fill="#ED5021"/>
<path d="M354.742 42.6704V-0.000213623L460.442 105.639L566.146 -0.000213623V42.6704H566.158V55.205L566.146 55.2169L488.069 133.25L460.442 160.858L432.819 133.25L397.245 97.6946V207.296H354.724V42.6704H354.742Z" fill="#1B1918"/>
<path d="M566.16 207.296H523.642V152.917L566.16 110.425V207.296Z" fill="#1B1918"/>
<path d="M0 238.171H570.59" stroke="#ED5021" stroke-width="1.33333" stroke-miterlimit="10"/>
</svg>
