<svg width="330" height="88" viewBox="0 0 330 88" fill="none" xmlns="http://www.w3.org/2000/svg">
<g style="mix-blend-mode:luminosity">
<mask id="mask0_593_1973" style="mask-type:luminance" maskUnits="userSpaceOnUse" x="53" y="10" width="223" height="68">
<path d="M275.91 10H53V77.4124H275.91V10Z" fill="white"/>
</mask>
<g mask="url(#mask0_593_1973)">
<path d="M73.1338 10L63.1568 40.1109C61.8984 44.1556 63.2467 46.133 67.2015 46.133H96.6832L94.7957 52.0653H65.314C55.3369 52.0653 51.2023 48.0206 53.8089 40.021L63.786 10H73.1338Z" fill="#4C5356"/>
</g>
<mask id="mask1_593_1973" style="mask-type:luminance" maskUnits="userSpaceOnUse" x="53" y="10" width="223" height="68">
<path d="M275.91 10H53V77.4124H275.91V10Z" fill="white"/>
</mask>
<g mask="url(#mask1_593_1973)">
<path d="M144.321 22.0443C143.063 26.0891 140.366 28.0665 136.411 28.0665H120.502C118.255 28.0665 116.277 28.2463 114.3 28.6957L118.524 16.0222H140.096C144.231 16.0222 145.579 18.0895 144.321 22.0443ZM142.164 10H111.334L110.345 12.9661L97.312 52.0653H106.48L110.525 40.021C111.783 35.9762 114.57 34.0887 118.524 34.0887H134.344C148.725 34.0887 150.703 30.0439 153.219 22.0443C155.916 14.0447 152.141 10 142.164 10Z" fill="#4C5356"/>
</g>
<mask id="mask2_593_1973" style="mask-type:luminance" maskUnits="userSpaceOnUse" x="53" y="10" width="223" height="68">
<path d="M275.91 10H53V77.4124H275.91V10Z" fill="white"/>
</mask>
<g mask="url(#mask2_593_1973)">
<path d="M247.058 66.627H249.125V72.4694C249.125 73.7277 249.215 75.6153 251.012 75.6153C252.72 75.6153 252.9 73.8176 252.9 72.4694V66.627H254.967V72.9188C254.967 75.4355 253.889 77.4129 251.102 77.4129C248.316 77.4129 247.237 75.5254 247.237 72.9188V66.627H247.058Z" fill="#EB6225"/>
</g>
<mask id="mask3_593_1973" style="mask-type:luminance" maskUnits="userSpaceOnUse" x="53" y="10" width="223" height="68">
<path d="M275.91 10H53V77.4124H275.91V10Z" fill="white"/>
</mask>
<g mask="url(#mask3_593_1973)">
<path d="M262.967 69.0538C262.608 68.5145 262.068 68.2449 261.439 68.2449C260.81 68.2449 260.181 68.7842 260.181 69.4134C260.181 71.1211 264.315 70.4021 264.315 73.9075C264.315 75.9748 263.057 77.413 260.9 77.413C259.462 77.413 258.383 76.604 257.754 75.4355L259.102 74.1772C259.372 74.9861 260.091 75.7052 260.99 75.7052C261.799 75.7052 262.338 74.9861 262.338 74.1772C262.338 73.0986 261.349 72.8289 260.54 72.4694C259.192 71.9301 258.203 71.211 258.203 69.683C258.203 67.9752 259.462 66.5371 261.259 66.5371C262.158 66.5371 263.417 66.9865 264.136 67.7056L262.967 69.0538Z" fill="#EB6225"/>
</g>
<path d="M271.056 69.683L272.405 73.4581H269.888L271.056 69.683ZM270.427 66.5371L266.292 77.3231H268.45L269.349 75.076H273.034L273.843 77.3231H276L272.045 66.5371H270.427Z" fill="#EB6225"/>
<mask id="mask4_593_1973" style="mask-type:luminance" maskUnits="userSpaceOnUse" x="53" y="10" width="223" height="68">
<path d="M275.91 10H53V77.4124H275.91V10Z" fill="white"/>
</mask>
<g mask="url(#mask4_593_1973)">
<path d="M220.902 10.1807C220.272 10.001 217.037 9.91108 215.868 10.2706C215.419 10.4504 214.43 10.9897 214.43 10.9897L193.667 25.7305L188.723 29.3259L188.274 29.6854C186.836 30.4943 186.117 30.8539 185.128 30.8539C184.139 30.8539 183.33 30.4044 182.162 29.3259L169.129 14.3154L168.32 13.4165L166.163 10.9897C165.264 10.1807 164.275 10.1807 162.567 10.1807C160.77 10.1807 159.601 11.1694 158.972 13.1469L145.939 52.0663H154.298L164.185 22.0453C164.635 20.5173 165.713 20.0679 166.882 21.4161L181.533 37.0558C183.51 39.0332 185.308 39.0332 187.645 37.4153L188.094 37.1457L210.385 21.0566C211.554 20.2476 212.632 20.8768 212.273 22.1352L211.554 24.0227L202.116 52.0663H210.565L218.385 28.6967L222.25 17.1916L223.238 13.8659C223.688 11.7986 222.699 10.72 220.902 10.1807Z" fill="#4C5356"/>
</g>
<mask id="mask5_593_1973" style="mask-type:luminance" maskUnits="userSpaceOnUse" x="53" y="10" width="223" height="68">
<path d="M275.91 10H53V77.4124H275.91V10Z" fill="white"/>
</mask>
<g mask="url(#mask5_593_1973)">
<path d="M249.215 16.113H274.023L275.91 10.1807H245.889C235.373 10.1807 232.497 14.3153 235.912 22.1351L236.092 22.5845L243.732 40.2016C245.44 44.1565 244.182 46.1339 239.957 46.1339H215.239L213.352 52.0662H243.373C253.889 52.0662 256.765 47.9316 253.35 40.1118L253.17 39.6623L245.53 22.0452C243.732 18.1803 244.99 16.113 249.215 16.113Z" fill="#EB6225"/>
</g>
<path d="M275.91 58.7168H53V59.9752H275.91V58.7168Z" fill="#EB6225"/>
</g>
</svg>
